<?xml version="1.0" standalone="no"?>
<!DOCTYPE svg PUBLIC "-//W3C//DTD SVG 20010904//EN"
 "http://www.w3.org/TR/2001/REC-SVG-20010904/DTD/svg10.dtd">
<svg version="1.0" xmlns="http://www.w3.org/2000/svg"
 width="243.000000pt" height="244.000000pt" viewBox="0 0 243.000000 244.000000"
 preserveAspectRatio="xMidYMid meet">

<g transform="translate(0.000000,244.000000) scale(0.100000,-0.100000)"
fill="#000000" stroke="none">
<path d="M1000 2418 c-264 -54 -461 -159 -645 -343 -180 -180 -293 -392 -340
-636 -23 -121 -20 -336 6 -462 73 -362 322 -683 654 -847 168 -82 304 -117
490 -127 187 -9 396 34 572 118 238 114 469 346 577 580 39 86 84 224 93 286
3 24 10 43 14 43 13 0 11 367 -1 375 -5 3 -10 17 -10 29 0 93 -126 384 -220
508 -154 203 -376 362 -610 438 -185 59 -408 74 -580 38z m415 -70 c295 -45
590 -240 761 -503 58 -88 82 -139 120 -250 51 -146 59 -199 58 -385 -1 -158
-4 -185 -28 -275 -15 -55 -36 -119 -46 -142 l-19 -43 -59 0 c-33 0 -74 3 -91
6 l-31 6 40 32 c80 63 123 144 139 261 15 103 60 96 -553 94 -292 -1 -542 -4
-556 -8 -16 -4 -26 -15 -28 -31 -5 -35 17 -138 40 -187 24 -51 100 -139 128
-148 54 -17 6 -25 -150 -25 -93 0 -170 2 -170 5 0 3 9 22 20 42 11 21 20 44
20 51 0 8 11 27 25 44 30 35 33 92 8 120 -9 10 -31 47 -47 81 -18 36 -47 74
-69 92 l-39 30 -249 3 c-228 3 -253 1 -293 -16 -47 -21 -89 -69 -108 -123 -6
-19 -22 -47 -35 -62 -29 -36 -29 -72 -1 -117 18 -29 68 -137 68 -148 0 -2 -25
-2 -57 0 l-56 3 -24 70 c-52 152 -65 246 -60 430 4 143 9 184 30 260 48 168
114 300 214 424 181 227 442 373 748 420 69 11 247 5 350 -11z m-512 -1226
c14 -13 27 -32 30 -43 5 -18 -5 -19 -314 -19 l-320 0 16 30 c30 57 45 60 317
57 243 -2 247 -2 271 -25z m1287 -65 c0 -55 -32 -130 -76 -177 -65 -70 -137
-98 -276 -111 -134 -12 -331 -4 -408 17 -70 20 -148 70 -182 120 -27 40 -62
149 -52 165 3 5 228 9 500 9 l494 0 0 -23z m-1197 -89 c12 -37 3 -38 -358 -38
-194 0 -360 3 -369 6 -9 3 -16 15 -16 25 0 18 14 19 369 19 287 0 370 -3 374
-12z m-205 -115 l151 -6 -15 -28 c-28 -54 -51 -59 -299 -59 -251 0 -282 6
-309 59 l-16 30 82 4 c173 7 260 7 406 0z m1432 -180 c0 -3 -11 -26 -25 -50
l-26 -43 -957 0 -957 0 -28 50 -28 50 1010 0 c556 0 1011 -3 1011 -7z m-110
-171 c0 -15 -133 -146 -195 -193 -313 -236 -708 -299 -1081 -174 -157 53 -300
142 -430 269 -46 44 -84 87 -84 94 0 9 186 12 895 12 492 0 895 -4 895 -8z"/>
<path d="M1541 1532 c-7 -13 -4 -24 10 -42 25 -34 24 -48 -12 -100 -73 -108
-88 -172 -42 -178 17 -3 27 6 44 40 11 24 37 67 58 97 46 68 50 134 12 175
-28 30 -56 33 -70 8z"/>
<path d="M1680 1535 c-11 -13 -9 -21 8 -45 12 -16 22 -35 22 -42 0 -7 -23 -46
-51 -87 -38 -57 -49 -81 -47 -105 2 -24 8 -31 25 -31 16 0 33 17 63 65 86 137
94 177 49 235 -23 28 -50 32 -69 10z"/>
<path d="M1816 1533 c-4 -10 1 -28 14 -45 11 -15 20 -31 20 -35 0 -4 -23 -46
-50 -93 -55 -93 -62 -135 -23 -135 16 0 33 17 63 65 86 137 94 177 49 235 -23
29 -64 33 -73 8z"/>
</g>
</svg>
